<svg width="24" height="24" viewBox="0 0 24 24" fill="none" xmlns="http://www.w3.org/2000/svg">
<path fill-rule="evenodd" clip-rule="evenodd" d="M12.0001 6.28604L10.9419 8.29159C10.5078 9.11433 9.71666 9.68915 8.80005 9.84775L6.56568 10.2344L8.14609 11.8604C8.79441 12.5275 9.09662 13.4576 8.96421 14.3784L8.64143 16.6228L10.6763 15.6223C11.5111 15.2118 12.489 15.2118 13.3238 15.6223L15.3587 16.6228L15.0359 14.3784C14.9035 13.4576 15.2057 12.5275 15.854 11.8604L17.4344 10.2343L15.2001 9.84775C14.2835 9.68915 13.4923 9.11432 13.0582 8.29159L12.0001 6.28604ZM12.8845 3.67643C12.5093 2.96528 11.4908 2.96528 11.1156 3.67643L9.17302 7.35831C9.02833 7.63256 8.7646 7.82416 8.45907 7.87703L4.35709 8.58677C3.56481 8.72386 3.25008 9.6925 3.81048 10.2691L6.71186 13.2544C6.92797 13.4767 7.02871 13.7868 6.98457 14.0937L6.392 18.2142C6.27754 19.0101 7.10152 19.6087 7.82307 19.2539L11.5588 17.4171C11.8371 17.2802 12.163 17.2802 12.4413 17.4171L16.177 19.2539C16.8986 19.6087 17.7226 19.0101 17.6081 18.2142L17.0155 14.0937C16.9714 13.7868 17.0721 13.4767 17.2882 13.2544L20.1896 10.2691C20.75 9.69249 20.4353 8.72386 19.643 8.58677L15.541 7.87703C15.2355 7.82416 14.9718 7.63256 14.8271 7.35831L12.8845 3.67643Z" fill="#BABACE"/>
</svg>
